<?xml version="1.0" encoding="UTF-8" standalone="no"?>
<svg
   xmlns:dc="http://purl.org/dc/elements/1.1/"
   xmlns:cc="http://creativecommons.org/ns#"
   xmlns:rdf="http://www.w3.org/1999/02/22-rdf-syntax-ns#"
   xmlns:svg="http://www.w3.org/2000/svg"
   xmlns="http://www.w3.org/2000/svg"
   xmlns:sodipodi="http://sodipodi.sourceforge.net/DTD/sodipodi-0.dtd"
   xmlns:inkscape="http://www.inkscape.org/namespaces/inkscape"
   version="1.1"
   id="Layer_1"
   x="0px"
   y="0px"
   width="66.960098"
   height="32.079006"
   viewBox="-22.5 0 66.960098 32.079006"
   enable-background="new -22.5 0 68 67.5"
   xml:space="preserve"
   sodipodi:docname="logo.svg"
   inkscape:version="1.0.2 (e86c870879, 2021-01-15, custom)"
   inkscape:export-filename="D:\projects\sublime_sustenance\images\logo.png"
   inkscape:export-xdpi="96"
   inkscape:export-ydpi="96"><metadata
   id="metadata51"><rdf:RDF><cc:Work
       rdf:about=""><dc:format>image/svg+xml</dc:format><dc:type
         rdf:resource="http://purl.org/dc/dcmitype/StillImage" /><dc:title></dc:title></cc:Work></rdf:RDF></metadata><defs
   id="defs49" /><sodipodi:namedview
   pagecolor="#ffffff"
   bordercolor="#666666"
   borderopacity="1"
   objecttolerance="10"
   gridtolerance="10"
   guidetolerance="10"
   inkscape:pageopacity="0"
   inkscape:pageshadow="2"
   inkscape:window-width="1528"
   inkscape:window-height="1042"
   id="namedview47"
   showgrid="false"
   fit-margin-top="0"
   fit-margin-left="0"
   fit-margin-right="0"
   fit-margin-bottom="0"
   inkscape:zoom="7.6996072"
   inkscape:cx="28.689394"
   inkscape:cy="28.129278"
   inkscape:window-x="0"
   inkscape:window-y="0"
   inkscape:window-maximized="0"
   inkscape:current-layer="Layer_1" />


<path
   fill-rule="evenodd"
   clip-rule="evenodd"
   d="m 67.223683,210.76898 c -0.243,-0.011 -0.487,-0.021 -0.73,-0.032 0.002,-0.082 0.004,-0.166 0.006,-0.249 0.243,0 0.487,0 0.73,0 -0.002,0.093 -0.004,0.187 -0.006,0.281 z"
   id="path28" />
<path
   fill-rule="evenodd"
   clip-rule="evenodd"
   fill="#ffffff"
   d="m 11.022683,14.193978 c 0,0.04 0,0.081 0,0.12 -0.002,0 -0.005,0 -0.008,0 0,-0.039 0,-0.08 0,-0.12 0.003,0 0.006,0 0.008,0 z"
   id="path30" />
<path
   fill-rule="evenodd"
   clip-rule="evenodd"
   fill="#ffffff"
   d="m 17.750683,14.193978 c 0,0.04 0,0.081 0,0.12 -0.002,0 -0.005,0 -0.008,0 0,-0.039 0,-0.08 0,-0.12 0.003,0 0.006,0 0.008,0 z"
   id="path32" />

<path
   fill-rule="evenodd"
   clip-rule="evenodd"
   fill="#ffffff"
   d="m 4.294683,14.193978 c 0,0.04 0,0.081 0,0.12 -0.002,0 -0.005,0 -0.008,0 0,-0.039 0,-0.08 0,-0.12 0.003,0 0.006,0 0.008,0 z"
   id="path42" />

<g
   id="g915"
   transform="matrix(0.66824882,0,0,0.66824882,-94.640792,-11.584902)"><circle
     style="fill:#7e2a0d;fill-opacity:1;stroke:#7e2a0d;stroke-width:0.761163;stroke-linecap:round;stroke-linejoin:round;stroke-miterlimit:4;stroke-dasharray:none;stroke-opacity:1;paint-order:stroke markers fill"
     id="circle1005"
     cx="121.43354"
     cy="30.814766"
     r="13.097973" /><circle
     style="fill:#ce9243;fill-opacity:1;stroke:#ce9243;stroke-width:0.761163;stroke-linecap:round;stroke-linejoin:round;stroke-miterlimit:4;stroke-dasharray:none;stroke-opacity:1;paint-order:stroke markers fill"
     id="circle1028"
     cx="157.91583"
     cy="51.86224"
     r="13.097973" /><circle
     style="fill:#0b2a2f;fill-opacity:1;stroke:#0b2a2f;stroke-width:0.761163;stroke-linecap:round;stroke-linejoin:round;stroke-miterlimit:4;stroke-dasharray:none;stroke-opacity:1;paint-order:stroke markers fill"
     id="circle1030"
     cx="194.67877"
     cy="30.814764"
     r="13.097973" /><path
     id="path1023"
     style="fill:#cdc9cf;fill-opacity:1;stroke:#2b4227;stroke-width:0.8;stroke-linecap:round;stroke-linejoin:round;stroke-miterlimit:4;stroke-dasharray:none;stroke-opacity:1;paint-order:stroke fill markers"
     inkscape:transform-center-x="0.019843856"
     inkscape:transform-center-y="3.0229925"
     d="m 194.67876,30.814763 -73.24522,2e-6 36.48229,21.047474 z"
     sodipodi:nodetypes="cccc" /></g></svg>
